<svg width="19" height="19" viewBox="0 0 19 19" fill="none" xmlns="http://www.w3.org/2000/svg">
<mask id="mask0_1_5050" style="mask-type:luminance" maskUnits="userSpaceOnUse" x="0" y="0" width="19" height="19">
<path d="M19 0H0V19H19V0Z" fill="white"/>
</mask>
<g mask="url(#mask0_1_5050)">
<g opacity="0.8">
<path d="M8.56882 9.40006C8.85232 9.56269 9.17347 9.64827 9.50032 9.64827C9.82716 9.64827 10.1483 9.56269 10.4318 9.40006L18.8878 3.76306C18.7486 3.36052 18.4875 3.01134 18.1407 2.76403C17.7939 2.51672 17.3787 2.38356 16.9528 2.38306H2.04682C1.62065 2.3837 1.20527 2.51715 0.858472 2.76484C0.511671 3.01253 0.250685 3.36215 0.111816 3.76506L8.56782 9.40006H8.56882Z" fill="#000"/>
<path d="M11.049 10.3291C10.582 10.6135 10.0458 10.7639 9.499 10.7639C8.95223 10.7639 8.41599 10.6135 7.949 10.3291L0 5.02808V14.5681C0.000529499 15.1108 0.216365 15.6312 0.600137 16.0149C0.983909 16.3987 1.50426 16.6145 2.047 16.6151H16.953C17.4957 16.6145 18.0161 16.3987 18.3999 16.0149C18.7836 15.6312 18.9995 15.1108 19 14.5681V5.02808L11.049 10.3291Z" fill="#000"/>
</g>
</g>
</svg>
