<svg width="32" height="32" viewBox="0 0 32 32" fill="none" xmlns="http://www.w3.org/2000/svg">
<path opacity="0.3" d="M32 16C32 7.16344 24.8366 0 16 0C7.16344 0 0 7.16344 0 16C0 24.8366 7.16344 32 16 32C24.8366 32 32 24.8366 32 16Z" fill="white"/>
<path d="M16.9481 16.0001L19.8051 13.1411C19.9239 13.0141 19.9887 12.846 19.9858 12.6722C19.9829 12.4983 19.9125 12.3325 19.7896 12.2095C19.6667 12.0866 19.5008 12.0163 19.327 12.0134C19.1532 12.0105 18.985 12.0753 18.8581 12.1941L16.0011 15.0531L13.1441 12.1941C13.0827 12.1284 13.0087 12.0758 12.9266 12.0394C12.8445 12.0029 12.7558 11.9834 12.666 11.9819C12.5761 11.9804 12.4869 11.997 12.4036 12.0307C12.3203 12.0644 12.2446 12.1145 12.1811 12.1781C12.1176 12.2416 12.0675 12.3173 12.0338 12.4006C12.0001 12.4839 11.9835 12.5731 11.985 12.6629C11.9864 12.7528 12.006 12.8414 12.0424 12.9236C12.0789 13.0057 12.1315 13.0797 12.1971 13.1411L15.0541 16.0001L12.1971 18.8591C12.0783 18.986 12.0135 19.1541 12.0164 19.3279C12.0193 19.5018 12.0897 19.6676 12.2126 19.7906C12.3355 19.9135 12.5014 19.9838 12.6752 19.9867C12.849 19.9896 13.0172 19.9248 13.1441 19.8061L16.0011 16.9471L18.8581 19.8111C18.9195 19.8767 18.9935 19.9293 19.0756 19.9657C19.1577 20.0022 19.2464 20.0217 19.3362 20.0232C19.4261 20.0247 19.5153 20.0081 19.5986 19.9744C19.6819 19.9407 19.7576 19.8906 19.8211 19.8271C19.8846 19.7635 19.9348 19.6878 19.9685 19.6045C20.0021 19.5212 20.0187 19.432 20.0173 19.3422C20.0158 19.2523 19.9962 19.1637 19.9598 19.0815C19.9233 18.9994 19.8707 18.9254 19.8051 18.8641L16.9481 16.0001Z" fill="white"/>
</svg>
