<svg width="10" height="7" viewBox="0 0 10 7" fill="none" xmlns="http://www.w3.org/2000/svg">
<path opacity="0.4" d="M5.00193 4.19195L8.78293 0.220946C8.84733 0.151489 8.92538 0.0960778 9.01219 0.0581846C9.099 0.0202915 9.19271 0.000732422 9.28743 0.000732422C9.38215 0.000732422 9.47585 0.0202915 9.56266 0.0581846C9.64947 0.0960778 9.72752 0.151489 9.79193 0.220946C9.92538 0.365573 9.99949 0.555152 9.99949 0.751946C9.99949 0.948741 9.92538 1.13832 9.79193 1.28295L5.50793 5.78295C5.44524 5.84998 5.36979 5.90382 5.28601 5.9413C5.20223 5.97877 5.11181 5.99914 5.02005 6.00119C4.9283 6.00324 4.83706 5.98693 4.75169 5.95323C4.66632 5.91953 4.58854 5.86912 4.52293 5.80495L0.212926 1.28595C0.0790339 1.14154 0.00463867 0.951876 0.00463867 0.754947C0.00463867 0.558017 0.0790339 0.368357 0.212926 0.223947C0.277329 0.154489 0.355381 0.0990781 0.442192 0.0611849C0.529004 0.0232917 0.622705 0.00373268 0.717426 0.00373268C0.812147 0.00373268 0.905848 0.0232917 0.99266 0.0611849C1.07947 0.0990781 1.15752 0.154489 1.22193 0.223947L5.00193 4.19195Z" fill="black"/>
</svg>
