<svg width="15" height="15" viewBox="0 0 15 15" fill="none" xmlns="http://www.w3.org/2000/svg">
<path d="M7.5 0C6.01664 0 4.5666 0.439867 3.33323 1.26398C2.09986 2.08809 1.13856 3.25943 0.570907 4.62987C0.00324965 6.00032 -0.145275 7.50832 0.144114 8.96318C0.433503 10.418 1.14781 11.7544 2.1967 12.8033C3.2456 13.8522 4.58197 14.5665 6.03683 14.8559C7.49168 15.1453 8.99968 14.9968 10.3701 14.4291C11.7406 13.8614 12.9119 12.9001 13.736 11.6668C14.5601 10.4334 15 8.98336 15 7.5C14.9979 5.51153 14.207 3.6051 12.801 2.19904C11.3949 0.792974 9.48848 0.00211765 7.5 0ZM7.5 13.636C6.28642 13.636 5.10008 13.2761 4.09102 12.6019C3.08196 11.9277 2.2955 10.9694 1.83108 9.84815C1.36666 8.72694 1.24515 7.49319 1.4819 6.30293C1.71866 5.11266 2.30306 4.01933 3.1612 3.16119C4.01933 2.30306 5.11266 1.71866 6.30293 1.4819C7.4932 1.24514 8.72694 1.36666 9.84815 1.83108C10.9694 2.29549 11.9277 3.08196 12.6019 4.09102C13.2761 5.10008 13.636 6.28641 13.636 7.5C13.6342 9.1268 12.9871 10.6864 11.8368 11.8368C10.6864 12.9871 9.1268 13.6341 7.5 13.636Z" fill="white"/>
<path d="M7.50012 5.91211C7.41055 5.91211 7.32187 5.92975 7.23913 5.96402C7.15638 5.9983 7.0812 6.04853 7.01787 6.11186C6.95454 6.17519 6.9043 6.25038 6.87003 6.33312C6.83576 6.41586 6.81812 6.50455 6.81812 6.59411V11.1391C6.81812 11.32 6.88997 11.4935 7.01787 11.6214C7.14577 11.7493 7.31924 11.8211 7.50012 11.8211C7.68099 11.8211 7.85446 11.7493 7.98236 11.6214C8.11026 11.4935 8.18211 11.32 8.18211 11.1391V6.59111C8.18132 6.41075 8.10912 6.23805 7.9813 6.1108C7.85349 5.98355 7.68047 5.91211 7.50012 5.91211Z" fill="white"/>
<path d="M7.49993 3.18188C7.3424 3.18187 7.18975 3.23646 7.06795 3.33636C6.94616 3.43626 6.86277 3.5753 6.83198 3.72978C6.80119 3.88427 6.82491 4.04465 6.8991 4.18361C6.97329 4.32257 7.09336 4.43151 7.23885 4.49189C7.38435 4.55226 7.54627 4.56032 7.69705 4.51471C7.84782 4.46909 7.97812 4.37262 8.06575 4.24172C8.15338 4.11082 8.19292 3.95359 8.17764 3.79681C8.16235 3.64003 8.09319 3.4934 7.98193 3.38188C7.85376 3.25451 7.68062 3.18267 7.49993 3.18188Z" fill="white"/>
</svg>
